<svg width="71" height="71" viewBox="0 0 71 71" fill="none" xmlns="http://www.w3.org/2000/svg">
<g id="Group 5">
<path id="Ellipse 1 (Stroke)" fill-rule="evenodd" clip-rule="evenodd" d="M35.5 52.9338C45.1284 52.9338 52.9338 45.1284 52.9338 35.5C52.9338 25.8716 45.1284 18.0662 35.5 18.0662C25.8716 18.0662 18.0662 25.8716 18.0662 35.5C18.0662 45.1284 25.8716 52.9338 35.5 52.9338ZM35.5 71C55.1061 71 71 55.1061 71 35.5C71 15.8939 55.1061 0 35.5 0C15.8939 0 0 15.8939 0 35.5C0 55.1061 15.8939 71 35.5 71Z" fill="white"/>
<path id="Polygon 1" d="M33.0605 32.5195L70.9995 71.0005H33.0605V32.5195Z" fill="#B9B5B4"/>
</g>
</svg>
